<?xml version="1.0" encoding="UTF-8"?>
<svg id="Layer_1" xmlns="http://www.w3.org/2000/svg" version="1.1" viewBox="0 0 1097.3 112.3">
  <!-- Generator: Adobe Illustrator 29.3.1, SVG Export Plug-In . SVG Version: 2.1.0 Build 151)  -->
  <defs>
    <style>
      .st0 {
        fill: #55af65;
        fill-rule: evenodd;
      }

      .st1 {
        fill: #f9f9f9;
      }
    </style>
  </defs>
  <path class="st0" d="M56.1,36.1c11,0,20,9,20,20s-9,20-20,20-20-9-20-20,9-20,20-20h0ZM94.2,56.1c0,21-17,38.1-38.1,38.1s-14.2-2.1-20-5.7v20.1c6.2,2.4,13,3.7,20,3.7,31,0,56.1-25.1,56.1-56.1h-18.1ZM56.1,18.1V0C25.1,0,0,25.1,0,56.1s7,31,18.1,41.3v-39.3c0-.7,0-1.4,0-2.1,0-21,17-38.1,38.1-38.1h0Z"/>
  <g>
    <path class="st1" d="M166.4,92.2c-16.2,0-22.3-6.8-22.3-16.8v-35.9c0-10,6.1-16.8,22.3-16.8h57.3v12.5h-57.3c-4,0-6.2,1.3-6.2,4v36.2c0,2.9,2.2,4,6.2,4h57.3v12.6h-57.3Z"/>
    <path class="st1" d="M242,92.2V22.7h16.1v69.4h-16.1Z"/>
    <path class="st1" d="M364.6,92.2l-72.3-50.6v50.6h-14V22.7h13.9l66.2,47.5V22.7h14.1v69.4h-7.9Z"/>
    <path class="st1" d="M392,92.2V22.7h73.2v12.5h-57.1v13.9h54.1v12.6h-54.1v17.8h57.1v12.6h-73.2Z"/>
    <path class="st1" d="M499.1,67v25.2h-16.1V22.7h58.3c16.2,0,22.3,6.8,22.3,16.8v10.8c0,10-6.1,16.8-22.3,16.8h-42.2ZM547.5,39.8c0-2.7-1.6-4.5-4.7-4.5h-43.7v19.1h43.8c3.2,0,4.6-1.5,4.6-4v-10.6Z"/>
    <path class="st1" d="M644.3,92.2l-15.5-30.9h-33.1v30.9h-16.1V22.7h60.4c16.2,0,22.4,6.8,22.4,16.8v5c0,8.3-3.9,14.9-16.4,16.6l15.6,31.1h-17.3ZM646.2,39.3c0-2.8-2.2-4-6.2-4h-44.3v13.5h44.3c4.2,0,6.2-.8,6.2-4.1v-5.3Z"/>
    <path class="st1" d="M701.4,92.2c-16.2,0-22.3-6.8-22.3-16.8v-35.9c0-10,6.1-16.8,22.3-16.8h47.1c16.2,0,22.3,6.8,22.3,16.8v35.9c0,10-6.1,16.8-22.3,16.8h-47.1ZM754.7,39.3c0-2.8-2.2-4-6.2-4h-47.1c-4,0-6.2,1.3-6.2,4v36.2c0,2.9,2.2,4,6.2,4h47.1c4,0,6.2-1.2,6.2-4v-36.2Z"/>
    <path class="st1" d="M883.3,92.2v-43.8l-32.6,43.8h-13.2l-32.8-43.7v43.7h-14.9V22.7h15l40,53.8,39.7-53.8h13.7v69.4h-14.9Z"/>
    <path class="st1" d="M933.9,67v25.2h-16.1V22.7h58.3c16.2,0,22.3,6.8,22.3,16.8v10.8c0,10-6.1,16.8-22.3,16.8h-42.2ZM982.3,39.8c0-2.7-1.6-4.5-4.7-4.5h-43.7v19.1h43.8c3.2,0,4.6-1.5,4.6-4v-10.6Z"/>
    <path class="st1" d="M1046.1,92.2v-56.9h-35.8v-12.5h87v12.5h-35v56.9h-16.2Z"/>
  </g>
</svg>